<mxfile host="app.diagrams.net" agent="Mozilla/5.0 (Windows NT 10.0; Win64; x64) AppleWebKit/537.36 (KHTML, like Gecko) Chrome/135.0.0.0 Safari/537.36" version="26.2.10">
  <diagram name="Pagina-1" id="iTOUy9KfyYFAagvMN2-p">
    <mxGraphModel dx="1641" dy="882" grid="1" gridSize="10" guides="1" tooltips="1" connect="1" arrows="1" fold="1" page="1" pageScale="1" pageWidth="827" pageHeight="1169" math="0" shadow="0">
      <root>
        <mxCell id="0" />
        <mxCell id="1" parent="0" />
        <mxCell id="cnHVWcX16_BiFhli7FUV-1" value="&lt;font style=&quot;font-size: 14px;&quot;&gt;&lt;i style=&quot;&quot;&gt;&amp;lt;&amp;lt;device&amp;gt;&amp;gt;&lt;/i&gt;&lt;br&gt;&lt;b style=&quot;&quot;&gt;Server&lt;/b&gt;&lt;/font&gt;" style="verticalAlign=top;align=center;shape=cube;size=10;direction=south;fontStyle=0;html=1;boundedLbl=1;spacingLeft=5;whiteSpace=wrap;fillColor=#FFCE9F;strokeColor=#d79b00;" vertex="1" parent="1">
          <mxGeometry x="760" y="80" width="300" height="290" as="geometry" />
        </mxCell>
        <mxCell id="cnHVWcX16_BiFhli7FUV-2" value="&lt;font style=&quot;font-size: 14px;&quot;&gt;&lt;i style=&quot;&quot;&gt;&amp;lt;&amp;lt;device&amp;gt;&amp;gt;&lt;/i&gt;&lt;br&gt;&lt;b&gt;Gateway&lt;/b&gt;&lt;/font&gt;" style="verticalAlign=top;align=center;shape=cube;size=10;direction=south;fontStyle=0;html=1;boundedLbl=1;spacingLeft=5;whiteSpace=wrap;fillColor=#ffe6cc;strokeColor=#d79b00;" vertex="1" parent="1">
          <mxGeometry x="431" y="110" width="170" height="160" as="geometry" />
        </mxCell>
        <mxCell id="cnHVWcX16_BiFhli7FUV-3" value="&lt;font style=&quot;font-size: 14px;&quot;&gt;&lt;i style=&quot;&quot;&gt;&amp;lt;&amp;lt;device&amp;gt;&amp;gt;&lt;/i&gt;&lt;br&gt;&lt;b style=&quot;&quot;&gt;Sensore&lt;/b&gt;&lt;/font&gt;" style="verticalAlign=top;align=center;shape=cube;size=10;direction=south;fontStyle=0;html=1;boundedLbl=1;spacingLeft=5;whiteSpace=wrap;fillColor=#ffe6cc;strokeColor=#d79b00;" vertex="1" parent="1">
          <mxGeometry x="451" y="345" width="130" height="120" as="geometry" />
        </mxCell>
        <mxCell id="cnHVWcX16_BiFhli7FUV-4" style="edgeStyle=orthogonalEdgeStyle;rounded=0;orthogonalLoop=1;jettySize=auto;html=1;entryX=0.5;entryY=1;entryDx=0;entryDy=0;endArrow=none;startFill=0;" edge="1" parent="1" source="cnHVWcX16_BiFhli7FUV-5" target="cnHVWcX16_BiFhli7FUV-6">
          <mxGeometry relative="1" as="geometry" />
        </mxCell>
        <mxCell id="cnHVWcX16_BiFhli7FUV-5" value="&lt;font style=&quot;font-size: 13px;&quot;&gt;GeoControl Database&lt;/font&gt;" style="shape=cylinder3;whiteSpace=wrap;html=1;boundedLbl=1;backgroundOutline=1;size=15;fillColor=#fff2cc;strokeColor=#d6b656;" vertex="1" parent="1">
          <mxGeometry x="837.5" y="260" width="145" height="80" as="geometry" />
        </mxCell>
        <mxCell id="cnHVWcX16_BiFhli7FUV-6" value="&amp;lt;&amp;lt;artifact&amp;gt;&amp;gt;&lt;br&gt;&lt;br&gt;&lt;b&gt;GeoControl System&lt;/b&gt;" style="html=1;align=center;verticalAlign=middle;dashed=0;whiteSpace=wrap;fillColor=#ffe6cc;strokeColor=#d79b00;" vertex="1" parent="1">
          <mxGeometry x="820" y="140" width="180" height="60" as="geometry" />
        </mxCell>
        <mxCell id="cnHVWcX16_BiFhli7FUV-7" style="edgeStyle=orthogonalEdgeStyle;rounded=0;orthogonalLoop=1;jettySize=auto;html=1;entryX=0;entryY=0;entryDx=160;entryDy=90;entryPerimeter=0;endArrow=none;startFill=0;" edge="1" parent="1" source="cnHVWcX16_BiFhli7FUV-3" target="cnHVWcX16_BiFhli7FUV-2">
          <mxGeometry relative="1" as="geometry">
            <Array as="points">
              <mxPoint x="511" y="310" />
              <mxPoint x="511" y="310" />
            </Array>
          </mxGeometry>
        </mxCell>
        <mxCell id="cnHVWcX16_BiFhli7FUV-8" value="&lt;font style=&quot;font-size: 12px;&quot;&gt;Serial Connection&lt;/font&gt;" style="edgeLabel;html=1;align=center;verticalAlign=middle;resizable=0;points=[];" vertex="1" connectable="0" parent="cnHVWcX16_BiFhli7FUV-7">
          <mxGeometry x="-0.0276" y="3" relative="1" as="geometry">
            <mxPoint as="offset" />
          </mxGeometry>
        </mxCell>
        <mxCell id="cnHVWcX16_BiFhli7FUV-9" value="&lt;font style=&quot;font-size: 20px;&quot;&gt;*&lt;/font&gt;" style="text;html=1;align=center;verticalAlign=middle;resizable=0;points=[];autosize=1;strokeColor=none;fillColor=none;" vertex="1" parent="1">
          <mxGeometry x="597" y="186" width="30" height="40" as="geometry" />
        </mxCell>
        <mxCell id="cnHVWcX16_BiFhli7FUV-10" value="&lt;font style=&quot;font-size: 13px;&quot;&gt;1&lt;/font&gt;" style="text;html=1;align=center;verticalAlign=middle;resizable=0;points=[];autosize=1;strokeColor=none;fillColor=none;" vertex="1" parent="1">
          <mxGeometry x="734" y="186" width="30" height="30" as="geometry" />
        </mxCell>
        <mxCell id="cnHVWcX16_BiFhli7FUV-11" value="&lt;p style=&quot;margin:0px;margin-top:6px;text-align:center;&quot;&gt;&lt;br&gt;&lt;/p&gt;&lt;p style=&quot;margin:0px;margin-top:6px;text-align:center;&quot;&gt;Network Interface&lt;/p&gt;" style="align=left;overflow=fill;html=1;dropTarget=0;whiteSpace=wrap;fillColor=#f8cecc;strokeColor=#b85450;" vertex="1" parent="1">
          <mxGeometry x="453.5" y="180" width="125" height="50" as="geometry" />
        </mxCell>
        <mxCell id="cnHVWcX16_BiFhli7FUV-12" value="" style="shape=component;jettyWidth=8;jettyHeight=4;" vertex="1" parent="cnHVWcX16_BiFhli7FUV-11">
          <mxGeometry x="1" width="20" height="20" relative="1" as="geometry">
            <mxPoint x="-24" y="4" as="offset" />
          </mxGeometry>
        </mxCell>
        <mxCell id="cnHVWcX16_BiFhli7FUV-13" style="edgeStyle=orthogonalEdgeStyle;rounded=0;orthogonalLoop=1;jettySize=auto;html=1;entryX=0.38;entryY=1.003;entryDx=0;entryDy=0;entryPerimeter=0;endArrow=none;startFill=0;" edge="1" parent="1" source="cnHVWcX16_BiFhli7FUV-2" target="cnHVWcX16_BiFhli7FUV-1">
          <mxGeometry relative="1" as="geometry" />
        </mxCell>
        <mxCell id="cnHVWcX16_BiFhli7FUV-14" value="&lt;font style=&quot;font-size: 12px;&quot;&gt;Internet Protocol (IP)&lt;/font&gt;" style="edgeLabel;html=1;align=center;verticalAlign=middle;resizable=0;points=[];" vertex="1" connectable="0" parent="cnHVWcX16_BiFhli7FUV-13">
          <mxGeometry x="0.0549" y="-1" relative="1" as="geometry">
            <mxPoint x="2" y="-11" as="offset" />
          </mxGeometry>
        </mxCell>
        <mxCell id="cnHVWcX16_BiFhli7FUV-15" value="&lt;font style=&quot;font-size: 20px;&quot;&gt;*&lt;/font&gt;" style="text;html=1;align=center;verticalAlign=middle;resizable=0;points=[];autosize=1;strokeColor=none;fillColor=none;" vertex="1" parent="1">
          <mxGeometry x="504" y="321" width="30" height="40" as="geometry" />
        </mxCell>
        <mxCell id="cnHVWcX16_BiFhli7FUV-16" value="&lt;font style=&quot;font-size: 13px;&quot;&gt;1&lt;/font&gt;" style="text;html=1;align=center;verticalAlign=middle;resizable=0;points=[];autosize=1;strokeColor=none;fillColor=none;" vertex="1" parent="1">
          <mxGeometry x="505" y="265" width="30" height="30" as="geometry" />
        </mxCell>
        <mxCell id="cnHVWcX16_BiFhli7FUV-17" value="&lt;font style=&quot;font-size: 14px;&quot;&gt;&lt;i style=&quot;&quot;&gt;&amp;lt;&amp;lt;device&amp;gt;&amp;gt;&lt;/i&gt;&lt;br&gt;&lt;b style=&quot;&quot;&gt;Client&lt;/b&gt;&lt;/font&gt;" style="verticalAlign=top;align=center;shape=cube;size=10;direction=south;fontStyle=0;html=1;boundedLbl=1;spacingLeft=5;whiteSpace=wrap;fillColor=#dae8fc;strokeColor=#6c8ebf;" vertex="1" parent="1">
          <mxGeometry x="1188" y="80" width="300" height="340" as="geometry" />
        </mxCell>
        <mxCell id="cnHVWcX16_BiFhli7FUV-18" value="&lt;p style=&quot;margin:0px;margin-top:6px;text-align:center;&quot;&gt;&lt;font style=&quot;font-size: 13px;&quot;&gt;&amp;lt;&amp;lt;executionEnvironment&amp;gt;&amp;gt;&lt;/font&gt;&lt;/p&gt;&lt;p style=&quot;margin:0px;margin-top:6px;text-align:center;&quot;&gt;&lt;b&gt;&lt;font style=&quot;font-size: 13px;&quot;&gt;Android/iOS&lt;/font&gt;&lt;/b&gt;&lt;/p&gt;" style="align=left;overflow=fill;html=1;dropTarget=0;whiteSpace=wrap;fillColor=#d5e8d4;strokeColor=#82b366;" vertex="1" parent="1">
          <mxGeometry x="1225.5" y="145" width="225" height="115" as="geometry" />
        </mxCell>
        <mxCell id="cnHVWcX16_BiFhli7FUV-19" value="" style="shape=component;jettyWidth=8;jettyHeight=4;" vertex="1" parent="cnHVWcX16_BiFhli7FUV-18">
          <mxGeometry x="1" width="20" height="20" relative="1" as="geometry">
            <mxPoint x="-24" y="4" as="offset" />
          </mxGeometry>
        </mxCell>
        <mxCell id="cnHVWcX16_BiFhli7FUV-20" value="&amp;lt;&amp;lt;artifact&amp;gt;&amp;gt;&lt;div&gt;&lt;font style=&quot;font-size: 6px;&quot;&gt;&lt;br&gt;&lt;/font&gt;&lt;/div&gt;&lt;div&gt;&lt;b&gt;Mobile App&lt;/b&gt;&lt;/div&gt;" style="rounded=0;whiteSpace=wrap;html=1;fillColor=#f5f5f5;strokeColor=#666666;fontColor=#333333;" vertex="1" parent="1">
          <mxGeometry x="1279" y="197" width="120" height="50" as="geometry" />
        </mxCell>
        <mxCell id="cnHVWcX16_BiFhli7FUV-21" value="&lt;p style=&quot;margin:0px;margin-top:6px;text-align:center;&quot;&gt;&lt;font style=&quot;font-size: 13px;&quot;&gt;&amp;lt;&amp;lt;executionEnvironment&amp;gt;&amp;gt;&lt;/font&gt;&lt;/p&gt;&lt;p style=&quot;margin:0px;margin-top:6px;text-align:center;&quot;&gt;&lt;b&gt;&lt;font style=&quot;font-size: 13px;&quot;&gt;Browser&lt;/font&gt;&lt;/b&gt;&lt;/p&gt;" style="align=left;overflow=fill;html=1;dropTarget=0;whiteSpace=wrap;fillColor=#d5e8d4;strokeColor=#82b366;" vertex="1" parent="1">
          <mxGeometry x="1225.5" y="283" width="225" height="115" as="geometry" />
        </mxCell>
        <mxCell id="cnHVWcX16_BiFhli7FUV-22" value="" style="shape=component;jettyWidth=8;jettyHeight=4;" vertex="1" parent="cnHVWcX16_BiFhli7FUV-21">
          <mxGeometry x="1" width="20" height="20" relative="1" as="geometry">
            <mxPoint x="-24" y="4" as="offset" />
          </mxGeometry>
        </mxCell>
        <mxCell id="cnHVWcX16_BiFhli7FUV-23" value="&amp;lt;&amp;lt;artifact&amp;gt;&amp;gt;&lt;div&gt;&lt;font style=&quot;font-size: 6px;&quot;&gt;&lt;br&gt;&lt;/font&gt;&lt;/div&gt;&lt;div&gt;&lt;b&gt;Front-end WebApp&lt;/b&gt;&lt;/div&gt;" style="rounded=0;whiteSpace=wrap;html=1;fillColor=#f5f5f5;strokeColor=#666666;fontColor=#333333;" vertex="1" parent="1">
          <mxGeometry x="1279" y="335" width="120" height="50" as="geometry" />
        </mxCell>
        <mxCell id="cnHVWcX16_BiFhli7FUV-24" style="edgeStyle=orthogonalEdgeStyle;rounded=0;orthogonalLoop=1;jettySize=auto;html=1;entryX=0.588;entryY=-0.002;entryDx=0;entryDy=0;entryPerimeter=0;endArrow=none;startFill=0;" edge="1" parent="1" source="cnHVWcX16_BiFhli7FUV-17" target="cnHVWcX16_BiFhli7FUV-1">
          <mxGeometry relative="1" as="geometry" />
        </mxCell>
        <mxCell id="cnHVWcX16_BiFhli7FUV-25" value="&lt;font style=&quot;font-size: 13px;&quot;&gt;HTTPS&lt;/font&gt;" style="edgeLabel;html=1;align=center;verticalAlign=middle;resizable=0;points=[];" vertex="1" connectable="0" parent="cnHVWcX16_BiFhli7FUV-24">
          <mxGeometry x="0.0808" y="-2" relative="1" as="geometry">
            <mxPoint x="3" y="-8" as="offset" />
          </mxGeometry>
        </mxCell>
        <mxCell id="cnHVWcX16_BiFhli7FUV-26" value="&lt;font style=&quot;font-size: 14px;&quot;&gt;0..&lt;/font&gt;&lt;font style=&quot;font-size: 20px;&quot;&gt;*&lt;/font&gt;" style="text;html=1;align=center;verticalAlign=middle;resizable=0;points=[];autosize=1;strokeColor=none;fillColor=none;" vertex="1" parent="1">
          <mxGeometry x="1146" y="243" width="50" height="40" as="geometry" />
        </mxCell>
        <mxCell id="cnHVWcX16_BiFhli7FUV-27" value="&lt;font style=&quot;font-size: 13px;&quot;&gt;1&lt;/font&gt;" style="text;html=1;align=center;verticalAlign=middle;resizable=0;points=[];autosize=1;strokeColor=none;fillColor=none;" vertex="1" parent="1">
          <mxGeometry x="1053" y="247" width="30" height="30" as="geometry" />
        </mxCell>
      </root>
    </mxGraphModel>
  </diagram>
</mxfile>
